<?xml version="1.0" encoding="utf-8"?>
<!-- Generator: Adobe Illustrator 22.1.0, SVG Export Plug-In . SVG Version: 6.00 Build 0)  -->
<svg version="1.1" id="Layer_1" xmlns="http://www.w3.org/2000/svg" xmlns:xlink="http://www.w3.org/1999/xlink" x="0px" y="0px"
	 viewBox="0 0 16 14.7" style="enable-background:new 0 0 16 14.7;" xml:space="preserve">
<style type="text/css">
	.st0{fill:#777777;}
</style>
<path id="bed_2_" class="st0" d="M0,13.7c0,0.5,0.5,1,1,1c0.5,0,1-0.5,1-1v-0.3h12v0.3c0,0.6,0.4,1,1,1s1-0.4,1-1v-2.3H0V13.7z M2,4
	c0-0.7,0.6-1.3,1.3-1.3H6c0.7,0,1.3,0.6,1.3,1.3v0.7h1.3V4c0-0.7,0.6-1.3,1.3-1.3h2.7C13.4,2.7,14,3.3,14,4v0.7h1.3V1.3
	C15.3,0.6,14.7,0,14,0H2C1.3,0,0.7,0.6,0.7,1.3v3.3H2V4z M14.7,6H1.3C0.6,6,0,6.6,0,7.3V10h16V7.3C16,6.6,15.4,6,14.7,6z"/>
</svg>
